<svg width="20" height="24" viewBox="0 0 20 24" fill="none" xmlns="http://www.w3.org/2000/svg">
<rect width="20" height="24" fill="#E5E5E5"/>
<g id="index" clip-path="url(#clip0_0_1)">
<rect width="1600" height="3000" transform="translate(-245 -17)" fill="#0C0C0C"/>
<g id="HeadLine">
<path id="Vector" d="M17.2409 9.57691C17.5726 9.57691 17.8901 9.38716 18.1249 9.04867L19.8167 6.60846C20.0609 6.25645 20.0609 5.68584 19.8167 5.33337L18.1249 2.89317C17.8905 2.55513 17.5726 2.36537 17.2409 2.36537H10.6249V1.28364C10.6249 1.08442 10.4851 0.923065 10.3124 0.923065H9.68741C9.51475 0.923065 9.37491 1.08442 9.37491 1.28364V2.36537H2.1874C1.66983 2.36537 1.2499 2.97069 1.2499 3.71754V8.22475C1.2499 8.97159 1.66983 9.57691 2.1874 9.57691H9.37491V11.0192H2.75889C2.42725 11.0192 2.10928 11.209 1.8749 11.547L0.183106 13.9877C-0.0610352 14.3397 -0.0610352 14.9103 0.183106 15.2628L1.8749 17.7025C2.10928 18.0406 2.42725 18.2308 2.75889 18.2308H9.37491V23.6394C9.37491 23.8386 9.51475 24 9.68741 24H10.3124C10.4851 24 10.6249 23.8386 10.6249 23.6394V18.2308H17.8124C18.33 18.2308 18.7499 17.6254 18.7499 16.8786V12.3714C18.7499 11.6245 18.33 11.0192 17.8124 11.0192H10.6249V9.57691H17.2409ZM17.4901 16.7885H2.8417L1.3417 14.625L2.84365 12.4615H17.4995L17.4901 16.7885ZM2.50967 3.80768H17.1581L18.6581 5.97114L17.1562 8.1346H2.50029L2.50967 3.80768Z" fill="white"/>
</g>
</g>
<defs>
<clipPath id="clip0_0_1">
<rect width="1600" height="3000" fill="white" transform="translate(-245 -17)"/>
</clipPath>
</defs>
</svg>
